# AST/ASF file generated using VICON BodyLanguage
# -----------------------------------------------
:version 1.10
:name VICON
:units
  mass 1.0
  length 0.45
  angle deg
:documentation
   .ast/.asf automatically generated from VICON data using
   VICON BodyBuilder and BodyLanguage model FoxedUp or BRILLIANT.MOD
:root
   order TX TY TZ RX RY RZ
   axis XYZ
   position 0 0 0  
   orientation 0 0 0 
:bonedata
  begin
     id 1 
     name lhipjoint
     direction 0.567725 -0.736092 0.368589 
     length 2.42353 
     axis 0 0 0  XYZ
  end
  begin
     id 2 
     name lfemur
     direction 0.34202 -0.939693 0  
     length 7.24894  
     axis 0 0 20  XYZ
    dof rx ry rz
    limits (-160.0 20.0)
           (-70.0 70.0)
           (-60.0 70.0)
  end
  begin
     id 3 
     name ltibia
     direction 0.34202 -0.939693 0   
     length 7.6997   
     axis 0 0 20   XYZ
    dof rx
    limits (-10.0 170.0)
  end
  begin
     id 4 
     name lfoot
     direction 0.100767 -0.276854 0.955614   
     length 2.37556   
     axis -90 7.62852e-016 20   XYZ
    dof rx rz
    limits (-45.0 90.0)
           (-70.0 20.0)
  end
  begin
     id 5 
     name ltoes
     direction 1.53592e-011 -4.21894e-011 1   
     length 1.18363   
     axis -90 7.62852e-016 20   XYZ
    dof rx
    limits (-90.0 20.0)
  end
  begin
     id 6 
     name rhipjoint
     direction -0.556459 -0.742938 0.372017   
     length 2.4012  
     axis 0 0 0  XYZ 
  end
  begin
     id 7 
     name rfemur
     direction -0.34202 -0.939693 0   
     length 7.5119   
     axis 0 0 -20   XYZ
    dof rx ry rz
    limits (-160.0 20.0)
           (-70.0 70.0)
           (-70.0 60.0)
  end
  begin
     id 8 
     name rtibia
     direction -0.34202 -0.939693 0   
     length 7.50155   
     axis 0 0 -20   XYZ
    dof rx
    limits (-10.0 170.0)
 end
 begin
     id 9 
     name rfoot
     direction -0.118427 -0.325376 0.938139   
     length 2.32487  
     axis -90 -7.62852e-016 -20   XYZ
    dof rx rz
    limits (-45.0 90.0)
           (-20.0 70.0)
  end
  begin
     id 10 
     name rtoes
     direction -1.53525e-011 -4.21868e-011 1   
     length 1.15233   
     axis -90 -7.62852e-016 -20   XYZ
    dof rx
    limits (-90.0 20.0)
  end
  begin
     id 11 
     name lowerback
     direction 0.0287568 0.999577 -0.00434502   
     length 2.15243   
     axis 0 0 0   XYZ
    dof rx ry rz
    limits (-20.0 45.0)
           (-30.0 30.0)
           (-30.0 30.0)
  end
  begin
     id 12 
     name upperback
     direction 0.0294009 0.99956 0.00404628   
     length 2.15427   
     axis 0 0 0   XYZ
    dof rx ry rz
    limits (-20.0 45.0)
           (-30.0 30.0)
           (-30.0 30.0)
  end
  begin
     id 13 
     name thorax
     direction 0.0151014 0.999868 0.0059419   
     length 2.14898   
     axis 0 0 0   XYZ
    dof rx ry rz
    limits (-20.0 45.0)
           (-30.0 30.0)
           (-30.0 30.0)
  end
  begin
     id 14 
     name lowerneck
     direction -0.0249197 0.989906 0.139515   
     length 1.6861   
     axis 0 0 0   XYZ
    dof rx ry rz
    limits (-20.0 45.0)
           (-30.0 30.0)
           (-30.0 30.0)
  end
  begin
     id 15 
     name upperneck
     direction 0.0438463 0.988795 -0.142693   
     length 1.71276   
     axis 0 0 0   XYZ
    dof rx ry rz
    limits (-20.0 45.0)
           (-30.0 30.0)
           (-30.0 30.0)
  end
  begin
     id 16
     name head
     direction 0.0148499 0.997845 -0.0639186  
     length 1.7209  
     axis 0 0 0   XYZ
    dof rx ry rz
    limits (-20.0 45.0)
           (-30.0 30.0)
           (-30.0 30.0)
  end
  begin
     id 17 
     name lclavicle
     direction 0.940298 0.323464 -0.105876  
     length 3.9048  
     axis 0 0 0   XYZ
    dof ry rz
    limits (-20.0 10.0)
           (0.0 20.0)
  end
  begin
     id 18 
     name lhumerus
     direction 1 -4.48954e-011 -4.9675e-028   
     length 4.6851   
     axis 180 -30 -90   XYZ
    dof rx ry rz
    limits (-60.0 90.0)
           (-90.0 90.0)
           (-90.0 90.0)
  end
  begin
     id 19
     name lradius
     direction 1 -4.48992e-011 -1.03359e-026   
     length 3.39626   
     axis 180 -30 -90   XYZ
    dof rx
    limits (-10.0 170.0)
  end
  begin
     id 20
     name lwrist
     direction 1 -4.48906e-011 -1.67336e-026   
     length 1.69813   
     axis 9.90442e-015 90 90   XYZ
    dof ry
    limits (-180.0 0.0)
 end
  begin
     id 21 
     name lhand
     direction 1 -4.49006e-011 -3.34673e-026   
     length 0.486078   
     axis 2.1355e-014 90 90   XYZ
    dof rx rz
    limits (-90.0 90.0)
           (-45.0 45.0)
  end
  begin
     id 22 
     name lfingers
     direction 1 -4.48992e-011 -6.69345e-026   
     length 0.391889   
     axis 4.27099e-014 90 90   XYZ
    dof rx
    limits (0.0 90.0)
  end
  begin
     id 23
     name lthumb
     direction 0.707107 -6.34926e-011 0.707107   
     length 0.562676   
     axis -90 45 2.85299e-015   XYZ
    dof rx rz
    limits (-45.0 45.0)
           (-45.0 45.0)
  end
  begin
     id 24 
     name rclavicle
     direction -0.882459 0.414895 -0.221648   
     length 3.44646  
     axis 0 0 0   XYZ 
    dof ry rz
    limits (-10.0 20.0)
           (-20.0 0.0)
  end
  begin
     id 25 
     name rhumerus
     direction -1 -4.48962e-011 -2.37984e-027  
     length 5.55576   
     axis 180 30 90   XYZ
    dof rx ry rz
    limits (-90.0 60.0)
           (-90.0 90.0)
           (-90.0 90.0)
  end
  begin
     id 26 
     name rradius
     direction -1 -4.48982e-011 -6.86791e-027   
     length 3.32774   
     axis 180 30 90   XYZ
    dof rx
    limits (-10.0 170.0)
  end
  begin
     id 27 
     name rwrist
     direction -1 -4.48961e-011 -1.67336e-026   
     length 1.66387   
     axis 9.90442e-015 -90 -90   XYZ
    dof ry
    limits (-180.0 0.0)
  end
  begin
     id 28
     name rhand
     direction -1 -4.4897e-011 -3.34673e-026   
     length 0.507628   
     axis 2.1355e-014 -90 -90   XYZ
    dof rx rz
    limits (-90.0 90.0)
           (-45.0 45.0)
  end
  begin
     id 29
     name rfingers
     direction -1 -4.48854e-011 -6.69345e-026   
     length 0.409263   
     axis 4.27099e-014 -90 -90   XYZ
    dof rx
    limits (0.0 90.0)
  end
  begin
     id 30
     name rthumb
     direction -0.707107 -6.34913e-011 0.707107   
     length 0.587622   
     axis -90 -45 -2.85299e-015   XYZ
    dof rx rz
    limits (-45.0 45.0)
           (-45.0 45.0)
  end
:hierarchy
  begin
    root lhipjoint rhipjoint lowerback
    lhipjoint lfemur
    lfemur ltibia
    ltibia lfoot
    lfoot ltoes
    rhipjoint rfemur
    rfemur rtibia
    rtibia rfoot
    rfoot rtoes
    lowerback upperback
    upperback thorax
    thorax lowerneck lclavicle rclavicle
    lowerneck upperneck
    upperneck head
    lclavicle lhumerus
    lhumerus lradius
    lradius lwrist
    lwrist lhand lthumb
    lhand lfingers
    rclavicle rhumerus
    rhumerus rradius
    rradius rwrist
    rwrist rhand rthumb
    rhand rfingers
  end

#!OML:ASF E:\motion texture\Top Level 1\Subject 1\Session 1\male.ASF
:FULLY-SPECIFIED
:DEGREES
171
root 33.2482 17.6622 4.79965 172.524 -81.9609 -165.897
lowerback -1.93839 0.351796 0.924161
upperback -4.33954 0.420327 2.32459
thorax -3.3865 0.174364 1.87402
lowerneck -8.23422 0.252151 -8.71688
upperneck -10.4416 1.23566 12.2661
head -1.826 0.54844 5.20613
rclavicle 5.69021e-015 9.14409e-015
rhumerus -28.8171 27.6374 -103.156
rradius 71.2951
rwrist -54.33
rhand -12.8613 -63.4897
rfingers 7.12502
rthumb 13.2269 -266.95
lclavicle 5.69021e-015 9.14409e-015
lhumerus 40.5983 -9.03663 90.6262
lradius 61.0909
lwrist 45.6077
lhand -1.85825 49.7047
lfingers 7.12502
lthumb 23.8093 78.2493
rfemur -19.6239 1.40349 18.9938
rtibia 60.6172
rfoot 4.03886 -3.85145
rtoes 4.5011
lfemur -19.6558 -3.94262 -18.5999
ltibia 20.3018
lfoot -5.70615 6.23914
ltoes 5.30623
172
root 33.1097 17.6706 4.80306 173.363 -82.1295 -166.875
lowerback -1.86404 0.392166 0.7915
upperback -4.31177 0.476939 2.26901
thorax -3.40158 0.207392 1.89
lowerneck -8.1179 0.131108 -8.82591
upperneck -10.503 1.08223 12.2961
head -1.84633 0.472476 5.23298
rclavicle -1.23246e-014 -3.97569e-015
rhumerus -29.2612 27.6412 -103.468
rradius 70.7256
rwrist -54.4157
rhand -12.8258 -63.5047
rfingers 7.12502
rthumb 13.2611 -266.937
lclavicle -1.23246e-014 -3.97569e-015
lhumerus 40.3974 -8.73474 90.8886
lradius 61.9534
lwrist 45.8158
lhand -2.17325 49.7329
lfingers 7.12502
lthumb 23.5072 78.3166
rfemur -20.5742 1.39824 18.8092
rtibia 61.3035
rfoot 3.94459 -4.24705
rtoes 4.85181
lfemur -18.9267 -4.00301 -18.973
ltibia 20.1667
lfoot -6.07341 6.10547
ltoes 5.288
173
root 32.9721 17.6782 4.80565 174.153 -82.311 -167.797
lowerback -1.79896 0.432784 0.672162
upperback -4.2784 0.533416 2.21334
thorax -3.40565 0.239878 1.89835
lowerneck -8.00179 0.00582531 -8.93096
upperneck -10.5749 0.922739 12.3242
head -1.86886 0.393098 5.25876
rclavicle 5.69021e-015 -1.55052e-014
rhumerus -29.6519 27.6288 -103.769
rradius 70.1391
rwrist -54.5068
rhand -12.8035 -63.5357
rfingers 7.12502
rthumb 13.2826 -266.908
lclavicle 5.69021e-015 -1.55052e-014
lhumerus 40.1025 -8.44834 91.1598
lradius 62.8474
lwrist 46.028
lhand -2.49015 49.7836
lfingers 7.12502
lthumb 23.2032 78.406
rfemur -21.511 1.37775 18.6454
rtibia 61.864
rfoot 3.78328 -4.66058
rtoes 5.19987
lfemur -18.201 -4.06149 -19.3291
ltibia 20.0175
lfoot -6.44017 5.97593
ltoes 5.23526
174
root 32.8356 17.6851 4.80745 174.887 -82.5074 -168.654
lowerback -1.73228 0.474357 0.564194
upperback -4.2464 0.591013 2.15966
thorax -3.41214 0.272506 1.90228
lowerneck -7.88913 -0.125136 -9.03314
upperneck -10.649 0.755201 12.3499
head -1.89044 0.309728 5.2834
rclavicle 5.09386e-015 1.11319e-014
rhumerus -29.9984 27.5964 -104.057
rradius 69.5387
rwrist -54.6035
rhand -12.7914 -63.5898
rfingers 7.12502
rthumb 13.2943 -266.854
lclavicle 5.09386e-015 1.11319e-014
lhumerus 39.7066 -8.18066 91.4418
lradius 63.773
lwrist 46.2471
lhand -2.81385 49.8591
lfingers 7.12502
lthumb 22.8926 78.5201
rfemur -22.4306 1.34073 18.5026
rtibia 62.2929
rfoot 3.5579 -5.08831
rtoes 5.54086
lfemur -17.4806 -4.11802 -19.6666
ltibia 19.8542
lfoot -6.80299 5.84764
ltoes 5.15242
175
root 32.7001 17.6911 4.80841 175.567 -82.7199 -169.448
lowerback -1.67537 0.515234 0.468455
upperback -4.21102 0.647307 2.10714
thorax -3.40955 0.304028 1.90057
lowerneck -7.76478 -0.259049 -9.13279
upperneck -10.7401 0.583241 12.3749
head -1.9182 0.223394 5.30765
rclavicle 1.63997e-015 -9.93923e-015
rhumerus -30.2951 27.5486 -104.331
rradius 68.9263
rwrist -54.7037
rhand -12.7881 -63.6643
rfingers 7.12502
rthumb 13.2975 -266.78
lclavicle 1.63997e-015 -9.93923e-015
lhumerus 39.2184 -7.92976 91.7278
lradius 64.7281
lwrist 46.4706
lhand -3.1435 49.9633
lfingers 7.12502
lthumb 22.5762 78.6632
rfemur -23.3294 1.28692 18.3797
rtibia 62.5861
rfoot 3.27264 -5.52865
rtoes 5.87431
lfemur -16.767 -4.17238 -19.9853
ltibia 19.679
lfoot -7.16168 5.71737
ltoes 5.04606
176
root 32.5656 17.6963 4.80856 176.199 -82.9502 -170.183
lowerback -1.62622 0.555786 0.383661
upperback -4.171 0.702925 2.05493
thorax -3.3977 0.334807 1.89304
lowerneck -7.64815 -0.398441 -9.22705
upperneck -10.8402 0.403741 12.3988
head -1.94634 0.133066 5.33087
rclavicle -1.09083e-014 -2.10712e-014
rhumerus -30.5322 27.4843 -104.586
rradius 68.3041
rwrist -54.8078
rhand -12.796 -63.7718
rfingers 7.12502
rthumb 13.2898 -266.672
lclavicle -1.09083e-014 -2.10712e-014
lhumerus 38.6472 -7.70109 92.0112
lradius 65.7091
lwrist 46.6984
lhand -3.50418 50.1035
lfingers 7.12502
lthumb 22.23 78.845
rfemur -24.2054 1.21464 18.2749
rtibia 62.7397
rfoot 2.93327 -5.98021
rtoes 6.20285
lfemur -16.0638 -4.22605 -20.286
ltibia 19.4954
lfoot -7.51756 5.58298
ltoes 4.922
177
root 32.4321 17.7007 4.80785 176.772 -83.1997 -170.851
lowerback -1.57623 0.595355 0.307176
upperback -4.13378 0.757157 2.00608
thorax -3.3892 0.36459 1.8843
lowerneck -7.53018 -0.542055 -9.31902
upperneck -10.9467 0.218157 12.4208
head -1.97577 0.0395392 5.35327
rclavicle -7.42958e-015 -4.77083e-015
rhumerus -30.7246 27.4039 -104.822
rradius 67.6769
rwrist -54.9162
rhand -12.8164 -63.9014
rfingers 7.12502
rthumb 13.2701 -266.541
lclavicle -7.42958e-015 -4.77083e-015
lhumerus 37.9831 -7.49145 92.2959
lradius 66.7156
lwrist 46.928
lhand -3.87339 50.2896
lfingers 7.12502
lthumb 21.8755 79.073
rfemur -25.0536 1.1243 18.1882
rtibia 62.7507
rfoot 2.54472 -6.43509
rtoes 6.52668
lfemur -15.3717 -4.27881 -20.5673
ltibia 19.3049
lfoot -7.86941 5.44318
ltoes 4.77122
178
root 32.2995 17.7042 4.80636 177.283 -83.471 -171.444
lowerback -1.53419 0.63262 0.241502
upperback -4.09392 0.808131 1.95927
thorax -3.37331 0.392355 1.87168
lowerneck -7.41391 -0.68916 -9.40688
upperneck -11.0657 0.0276811 12.4417
head -2.00785 -0.0568097 5.37493
rclavicle 8.3738e-015 5.96354e-015
rhumerus -30.8599 27.3094 -105.037
rradius 67.0448
rwrist -55.0257
rhand -12.8408 -64.0509
rfingers 7.12502
rthumb 13.2466 -266.39
lclavicle 8.3738e-015 5.96354e-015
lhumerus 37.2402 -7.30197 92.5753
lradius 67.7413
lwrist 47.1531
lhand -4.2434 50.5064
lfingers 7.12502
lthumb 21.5202 79.3308
rfemur -25.8724 1.01386 18.1181
rtibia 62.6179
rfoot 2.1093 -6.89449
rtoes 6.83142
lfemur -14.6934 -4.3348 -20.8285
ltibia 19.1104
lfoot -8.21676 5.29649
ltoes 4.61615
179
root 32.1679 17.707 4.80402 177.72 -83.7603 -171.954
lowerback -1.50333 0.668146 0.187529
upperback -4.04944 0.856599 1.91444
thorax -3.34613 0.418446 1.85469
lowerneck -7.29734 -0.838995 -9.4907
upperneck -11.1995 -0.166612 12.4626
head -2.04376 -0.15558 5.39629
rclavicle -9.79014e-015 9.14409e-015
rhumerus -30.9352 27.2029 -105.228
rradius 66.4131
rwrist -55.1402
rhand -12.8756 -64.2327
rfingers 7.12502
rthumb 13.2131 -266.206
lclavicle -9.79014e-015 9.14409e-015
lhumerus 36.4251 -7.13209 92.8461
lradius 68.7815
lwrist 47.3739
lhand -4.59605 50.7557
lfingers 7.12502
lthumb 21.1815 79.6186
rfemur -26.6596 0.887865 18.0651
rtibia 62.3401
rfoot 1.64225 -7.35362
rtoes 7.11765
lfemur -14.0279 -4.39025 -21.0674
ltibia 18.9114
lfoot -8.55791 5.1431
ltoes 4.44797
180
root 32.0371 17.709 4.80089 178.075 -84.072 -172.37
lowerback -1.4726 0.702045 0.141403
upperback -4.00676 0.902901 1.87368
thorax -3.32065 0.4432 1.83752
lowerneck -7.18954 -0.993845 -9.56968
upperneck -11.3373 -0.367866 12.4811
head -2.07849 -0.257779 5.4162
rclavicle 1.19271e-015 -2.74323e-014
rhumerus -30.9569 27.0809 -105.393
rradius 65.7862
rwrist -55.2594
rhand -12.9246 -64.4348
rfingers 7.12502
rthumb 13.1659 -266.001
lclavicle 1.19271e-015 -2.74323e-014
lhumerus 35.5339 -6.98458 93.1138
lradius 69.8366
lwrist 47.599
lhand -4.95223 51.0314
lfingers 7.12502
lthumb 20.8393 79.9322
rfemur -27.4133 0.742858 18.0271
rtibia 61.9168
rfoot 1.15234 -7.80732
rtoes 7.3784
lfemur -13.3783 -4.44818 -21.284
ltibia 18.7112
lfoot -8.89353 4.98013
ltoes 4.27856
